<svg width="320" height="262" viewBox="0 0 320 262" fill="none" xmlns="http://www.w3.org/2000/svg">
<g filter="url(#filter0_d_101_47)">
<path d="M15 61C15 41.67 30.67 26 50 26H305V208C305 227.33 289.33 243 270 243H15V61Z" fill="white" fill-opacity="0.3" shape-rendering="crispEdges"/>
<path d="M50 27.5H303.5V208C303.5 226.502 288.502 241.5 270 241.5H16.5V61C16.5 42.4985 31.4985 27.5 50 27.5Z" stroke="white" stroke-width="3" shape-rendering="crispEdges"/>
</g>
<path d="M160 70.5C180.165 70.5 196.5 86.6241 196.5 106.5C196.5 126.376 180.165 142.5 160 142.5C139.835 142.5 123.5 126.376 123.5 106.5C123.5 86.6241 139.835 70.5 160 70.5Z" fill="#5E7600" stroke="white"/>
<g filter="url(#filter1_d_101_47)">
<path d="M151 95.77V91.6471C154.856 91.5414 157.97 90.2729 160.738 88H164V125H160.046V93.4443C157.525 94.9243 154.46 95.6643 151 95.77Z" fill="#F6FFD2"/>
</g>
<path d="M64.5409 178V168.2H65.6609V176.936H71.1069V178H64.5409ZM72.6372 174.514C72.6372 172.372 74.2192 170.79 76.3192 170.79C78.4752 170.79 80.0432 172.302 80.0432 174.514C80.0432 176.698 78.4752 178.21 76.3192 178.21C74.2192 178.21 72.6372 176.628 72.6372 174.514ZM73.7572 174.5C73.7572 176.026 74.8632 177.146 76.3192 177.146C77.8732 177.146 78.9232 176.082 78.9232 174.5C78.9232 172.918 77.8592 171.84 76.3192 171.84C74.8492 171.84 73.7572 172.974 73.7572 174.5ZM86.0118 170.79V171.966C84.0518 171.966 82.7918 173.52 82.7918 176.012V178H81.6718V171H82.6378L82.7918 173.226C83.3798 171.714 84.5418 170.79 86.0118 170.79ZM94.0109 174.822H87.9489C88.0749 176.264 89.0689 177.314 90.3989 177.314C91.3789 177.314 92.1769 176.81 92.6389 176.012H93.7869C93.2129 177.37 91.9669 178.21 90.3989 178.21C88.3409 178.21 86.8149 176.628 86.8149 174.514C86.8149 172.372 88.3129 170.79 90.3989 170.79C92.5269 170.79 94.0249 172.302 94.0249 174.514C94.0249 174.612 94.0109 174.71 94.0109 174.822ZM87.9489 174.178H92.8909C92.7649 172.708 91.7849 171.714 90.3989 171.714C89.0689 171.714 88.0749 172.736 87.9489 174.178ZM96.8191 174.542V178H95.6991V171H96.6651L96.8051 172.344C97.3231 171.378 98.2051 170.79 99.2691 170.79C100.515 170.79 101.481 171.588 101.915 172.862C102.377 171.602 103.385 170.79 104.617 170.79C106.325 170.79 107.529 172.344 107.529 174.542V178H106.409V174.542C106.409 172.918 105.541 171.84 104.281 171.84C103.049 171.84 102.181 172.932 102.181 174.542V178H101.061V174.542C101.061 172.918 100.221 171.84 98.9331 171.84C97.6731 171.84 96.8191 172.932 96.8191 174.542ZM113.269 168.592C113.269 168.228 113.507 167.99 113.857 167.99C114.221 167.99 114.459 168.228 114.459 168.592C114.459 168.942 114.221 169.18 113.857 169.18C113.507 169.18 113.269 168.942 113.269 168.592ZM114.417 178H113.297V171H114.417V178ZM116.686 171H117.652L117.792 172.386C118.38 171.392 119.374 170.79 120.55 170.79C122.454 170.79 123.882 172.372 123.882 174.486C123.882 176.628 122.468 178.21 120.55 178.21C119.388 178.21 118.38 177.622 117.806 176.614V180.8H116.686V171ZM122.762 174.5C122.762 172.932 121.698 171.798 120.256 171.798C118.786 171.798 117.806 172.904 117.806 174.5C117.806 176.082 118.814 177.188 120.256 177.188C121.698 177.188 122.762 176.068 122.762 174.5ZM130.964 176.138C130.964 177.314 129.83 178.21 128.206 178.21C126.428 178.21 125.182 177.454 125.014 176.026H126.078C126.232 176.894 126.96 177.356 128.22 177.356C129.172 177.356 129.9 176.824 129.9 176.152C129.9 174.08 125.238 175.662 125.238 172.848C125.238 171.714 126.344 170.79 127.968 170.79C129.69 170.79 130.782 171.616 130.894 173.002H129.858C129.802 172.232 129.2 171.63 127.954 171.63C127.058 171.63 126.316 172.162 126.316 172.834C126.316 174.836 130.964 173.142 130.964 176.138ZM138.255 174.458V171H139.375V178H138.409L138.269 176.614C137.723 177.594 136.771 178.21 135.637 178.21C133.859 178.21 132.599 176.642 132.599 174.458V171H133.719V174.458C133.719 176.068 134.615 177.146 135.973 177.146C137.331 177.146 138.255 176.054 138.255 174.458ZM142.661 174.542V178H141.541V171H142.507L142.647 172.344C143.165 171.378 144.047 170.79 145.111 170.79C146.357 170.79 147.323 171.588 147.757 172.862C148.219 171.602 149.227 170.79 150.459 170.79C152.167 170.79 153.371 172.344 153.371 174.542V178H152.251V174.542C152.251 172.918 151.383 171.84 150.123 171.84C148.891 171.84 148.023 172.932 148.023 174.542V178H146.903V174.542C146.903 172.918 146.063 171.84 144.775 171.84C143.515 171.84 142.661 172.932 142.661 174.542ZM165.761 178H164.781L164.655 176.586C164.081 177.608 163.059 178.21 161.883 178.21C159.979 178.21 158.551 176.628 158.551 174.514C158.551 172.372 159.965 170.79 161.883 170.79C163.059 170.79 164.067 171.392 164.641 172.4V168.2H165.761V178ZM159.671 174.5C159.671 176.054 160.749 177.188 162.177 177.188C163.647 177.188 164.641 176.096 164.641 174.5C164.641 172.918 163.633 171.798 162.177 171.798C160.735 171.798 159.671 172.918 159.671 174.5ZM167.452 174.514C167.452 172.372 169.034 170.79 171.134 170.79C173.29 170.79 174.858 172.302 174.858 174.514C174.858 176.698 173.29 178.21 171.134 178.21C169.034 178.21 167.452 176.628 167.452 174.514ZM168.572 174.5C168.572 176.026 169.678 177.146 171.134 177.146C172.688 177.146 173.738 176.082 173.738 174.5C173.738 172.918 172.674 171.84 171.134 171.84C169.664 171.84 168.572 172.974 168.572 174.5ZM177.606 168.2V178H176.486V168.2H177.606ZM179.291 174.514C179.291 172.372 180.873 170.79 182.973 170.79C185.129 170.79 186.697 172.302 186.697 174.514C186.697 176.698 185.129 178.21 182.973 178.21C180.873 178.21 179.291 176.628 179.291 174.514ZM180.411 174.5C180.411 176.026 181.517 177.146 182.973 177.146C184.527 177.146 185.577 176.082 185.577 174.5C185.577 172.918 184.513 171.84 182.973 171.84C181.503 171.84 180.411 172.974 180.411 174.5ZM192.666 170.79V171.966C190.706 171.966 189.446 173.52 189.446 176.012V178H188.326V171H189.292L189.446 173.226C190.034 171.714 191.196 170.79 192.666 170.79ZM203.083 176.138C203.083 177.314 201.949 178.21 200.325 178.21C198.547 178.21 197.301 177.454 197.133 176.026H198.197C198.351 176.894 199.079 177.356 200.339 177.356C201.291 177.356 202.019 176.824 202.019 176.152C202.019 174.08 197.357 175.662 197.357 172.848C197.357 171.714 198.463 170.79 200.087 170.79C201.809 170.79 202.901 171.616 203.013 173.002H201.977C201.921 172.232 201.319 171.63 200.073 171.63C199.177 171.63 198.435 172.162 198.435 172.834C198.435 174.836 203.083 173.142 203.083 176.138ZM204.789 168.592C204.789 168.228 205.027 167.99 205.377 167.99C205.741 167.99 205.979 168.228 205.979 168.592C205.979 168.942 205.741 169.18 205.377 169.18C205.027 169.18 204.789 168.942 204.789 168.592ZM205.937 178H204.817V171H205.937V178ZM210.277 172.05V174.724C210.277 176.432 210.935 177.146 212.405 177.146V178.21C210.109 178.21 209.157 177.034 209.157 174.724V172.05H207.687V171.574L209.815 169.432H210.277V171H212.405V172.05H210.277ZM224.373 178H223.407L223.267 176.558C222.707 177.594 221.699 178.21 220.509 178.21C218.591 178.21 217.135 176.628 217.135 174.514C217.135 172.372 218.591 170.79 220.509 170.79C221.699 170.79 222.693 171.406 223.253 172.442L223.407 171H224.373V178ZM218.255 174.5C218.255 176.054 219.333 177.188 220.803 177.188C222.245 177.188 223.253 176.096 223.253 174.5C223.253 172.918 222.245 171.798 220.803 171.798C219.305 171.798 218.255 172.918 218.255 174.5ZM227.632 174.542V178H226.512V171H227.478L227.618 172.344C228.136 171.378 229.018 170.79 230.082 170.79C231.328 170.79 232.294 171.588 232.728 172.862C233.19 171.602 234.198 170.79 235.43 170.79C237.138 170.79 238.342 172.344 238.342 174.542V178H237.222V174.542C237.222 172.918 236.354 171.84 235.094 171.84C233.862 171.84 232.994 172.932 232.994 174.542V178H231.874V174.542C231.874 172.918 231.034 171.84 229.746 171.84C228.486 171.84 227.632 172.932 227.632 174.542ZM247.232 174.822H241.17C241.296 176.264 242.29 177.314 243.62 177.314C244.6 177.314 245.398 176.81 245.86 176.012H247.008C246.434 177.37 245.188 178.21 243.62 178.21C241.562 178.21 240.036 176.628 240.036 174.514C240.036 172.372 241.534 170.79 243.62 170.79C245.748 170.79 247.246 172.302 247.246 174.514C247.246 174.612 247.232 174.71 247.232 174.822ZM241.17 174.178H246.112C245.986 172.708 245.006 171.714 243.62 171.714C242.29 171.714 241.296 172.736 241.17 174.178ZM251.006 172.05V174.724C251.006 176.432 251.664 177.146 253.134 177.146V178.21C250.838 178.21 249.886 177.034 249.886 174.724V172.05H248.416V171.574L250.544 169.432H251.006V171H253.134V172.05H251.006ZM254.475 180.002L254.811 176.936H256.057L255.427 180.002H254.475ZM70.2298 192.5C70.2298 194.054 71.3078 195.188 72.7778 195.188C73.9398 195.188 74.8638 194.53 75.2278 193.536H76.3898C75.9278 195.146 74.5698 196.21 72.7778 196.21C70.6778 196.21 69.1098 194.628 69.1098 192.514C69.1098 190.372 70.6638 188.79 72.7778 188.79C74.5558 188.79 75.9138 189.84 76.3758 191.45H75.2138C74.8358 190.47 73.9258 189.798 72.7778 189.798C71.3078 189.798 70.2298 190.96 70.2298 192.5ZM77.3676 192.514C77.3676 190.372 78.9496 188.79 81.0496 188.79C83.2056 188.79 84.7736 190.302 84.7736 192.514C84.7736 194.698 83.2056 196.21 81.0496 196.21C78.9496 196.21 77.3676 194.628 77.3676 192.514ZM78.4876 192.5C78.4876 194.026 79.5936 195.146 81.0496 195.146C82.6036 195.146 83.6536 194.082 83.6536 192.5C83.6536 190.918 82.5896 189.84 81.0496 189.84C79.5796 189.84 78.4876 190.974 78.4876 192.5ZM87.5222 192.542V196H86.4022V189H87.3682L87.5082 190.386C88.0542 189.392 88.9782 188.79 90.1262 188.79C91.9322 188.79 93.1782 190.344 93.1782 192.542V196H92.0582V192.542C92.0582 190.918 91.1622 189.84 89.7902 189.84C88.4462 189.84 87.5222 190.932 87.5222 192.542ZM100.818 194.138C100.818 195.314 99.6836 196.21 98.0596 196.21C96.2816 196.21 95.0356 195.454 94.8676 194.026H95.9316C96.0856 194.894 96.8136 195.356 98.0736 195.356C99.0256 195.356 99.7536 194.824 99.7536 194.152C99.7536 192.08 95.0916 193.662 95.0916 190.848C95.0916 189.714 96.1976 188.79 97.8216 188.79C99.5436 188.79 100.636 189.616 100.748 191.002H99.7116C99.6556 190.232 99.0536 189.63 97.8076 189.63C96.9116 189.63 96.1696 190.162 96.1696 190.834C96.1696 192.836 100.818 191.142 100.818 194.138ZM109.064 192.822H103.002C103.128 194.264 104.122 195.314 105.452 195.314C106.432 195.314 107.23 194.81 107.692 194.012H108.84C108.266 195.37 107.02 196.21 105.452 196.21C103.394 196.21 101.868 194.628 101.868 192.514C101.868 190.372 103.366 188.79 105.452 188.79C107.58 188.79 109.078 190.302 109.078 192.514C109.078 192.612 109.064 192.71 109.064 192.822ZM103.002 192.178H107.944C107.818 190.708 106.838 189.714 105.452 189.714C104.122 189.714 103.128 190.736 103.002 192.178ZM111.396 192.5C111.396 194.054 112.474 195.188 113.944 195.188C115.106 195.188 116.03 194.53 116.394 193.536H117.556C117.094 195.146 115.736 196.21 113.944 196.21C111.844 196.21 110.276 194.628 110.276 192.514C110.276 190.372 111.83 188.79 113.944 188.79C115.722 188.79 117.08 189.84 117.542 191.45H116.38C116.002 190.47 115.092 189.798 113.944 189.798C112.474 189.798 111.396 190.96 111.396 192.5ZM121.273 190.05V192.724C121.273 194.432 121.931 195.146 123.401 195.146V196.21C121.105 196.21 120.153 195.034 120.153 192.724V190.05H118.683V189.574L120.811 187.432H121.273V189H123.401V190.05H121.273ZM131.786 192.822H125.724C125.85 194.264 126.844 195.314 128.174 195.314C129.154 195.314 129.952 194.81 130.414 194.012H131.562C130.988 195.37 129.742 196.21 128.174 196.21C126.116 196.21 124.59 194.628 124.59 192.514C124.59 190.372 126.088 188.79 128.174 188.79C130.302 188.79 131.8 190.302 131.8 192.514C131.8 192.612 131.786 192.71 131.786 192.822ZM125.724 192.178H130.666C130.54 190.708 129.56 189.714 128.174 189.714C126.844 189.714 125.85 190.736 125.724 192.178ZM135.56 190.05V192.724C135.56 194.432 136.218 195.146 137.688 195.146V196.21C135.392 196.21 134.44 195.034 134.44 192.724V190.05H132.97V189.574L135.098 187.432H135.56V189H137.688V190.05H135.56ZM145.064 192.458V189H146.184V196H145.218L145.078 194.614C144.532 195.594 143.58 196.21 142.446 196.21C140.668 196.21 139.408 194.642 139.408 192.458V189H140.528V192.458C140.528 194.068 141.424 195.146 142.782 195.146C144.14 195.146 145.064 194.054 145.064 192.458ZM152.689 188.79V189.966C150.729 189.966 149.469 191.52 149.469 194.012V196H148.349V189H149.315L149.469 191.226C150.057 189.714 151.219 188.79 152.689 188.79ZM164.381 196H163.415L163.275 194.558C162.715 195.594 161.707 196.21 160.517 196.21C158.599 196.21 157.143 194.628 157.143 192.514C157.143 190.372 158.599 188.79 160.517 188.79C161.707 188.79 162.701 189.406 163.261 190.442L163.415 189H164.381V196ZM158.263 192.5C158.263 194.054 159.341 195.188 160.811 195.188C162.253 195.188 163.261 194.096 163.261 192.5C163.261 190.918 162.253 189.798 160.811 189.798C159.313 189.798 158.263 190.918 158.263 192.5ZM173.239 196H172.259L172.133 194.586C171.559 195.608 170.537 196.21 169.361 196.21C167.457 196.21 166.029 194.628 166.029 192.514C166.029 190.372 167.443 188.79 169.361 188.79C170.537 188.79 171.545 189.392 172.119 190.4V186.2H173.239V196ZM167.149 192.5C167.149 194.054 168.227 195.188 169.655 195.188C171.125 195.188 172.119 194.096 172.119 192.5C172.119 190.918 171.111 189.798 169.655 189.798C168.213 189.798 167.149 190.918 167.149 192.5ZM175.476 186.592C175.476 186.228 175.714 185.99 176.064 185.99C176.428 185.99 176.666 186.228 176.666 186.592C176.666 186.942 176.428 187.18 176.064 187.18C175.714 187.18 175.476 186.942 175.476 186.592ZM176.624 196H175.504V189H176.624V196ZM178.893 189H179.859L179.999 190.386C180.587 189.392 181.581 188.79 182.757 188.79C184.661 188.79 186.089 190.372 186.089 192.486C186.089 194.628 184.675 196.21 182.757 196.21C181.595 196.21 180.587 195.622 180.013 194.614V198.8H178.893V189ZM184.969 192.5C184.969 190.932 183.905 189.798 182.463 189.798C180.993 189.798 180.013 190.904 180.013 192.5C180.013 194.082 181.021 195.188 182.463 195.188C183.905 195.188 184.969 194.068 184.969 192.5ZM187.836 186.592C187.836 186.228 188.074 185.99 188.424 185.99C188.788 185.99 189.026 186.228 189.026 186.592C189.026 186.942 188.788 187.18 188.424 187.18C188.074 187.18 187.836 186.942 187.836 186.592ZM188.984 196H187.864V189H188.984V196ZM196.712 194.138C196.712 195.314 195.578 196.21 193.954 196.21C192.176 196.21 190.93 195.454 190.762 194.026H191.826C191.98 194.894 192.708 195.356 193.968 195.356C194.92 195.356 195.648 194.824 195.648 194.152C195.648 192.08 190.986 193.662 190.986 190.848C190.986 189.714 192.092 188.79 193.716 188.79C195.438 188.79 196.53 189.616 196.642 191.002H195.606C195.55 190.232 194.948 189.63 193.702 189.63C192.806 189.63 192.064 190.162 192.064 190.834C192.064 192.836 196.712 191.142 196.712 194.138ZM198.882 192.5C198.882 194.054 199.96 195.188 201.43 195.188C202.592 195.188 203.516 194.53 203.88 193.536H205.042C204.58 195.146 203.222 196.21 201.43 196.21C199.33 196.21 197.762 194.628 197.762 192.514C197.762 190.372 199.316 188.79 201.43 188.79C203.208 188.79 204.566 189.84 205.028 191.45H203.866C203.488 190.47 202.578 189.798 201.43 189.798C199.96 189.798 198.882 190.96 198.882 192.5ZM206.744 186.592C206.744 186.228 206.982 185.99 207.332 185.99C207.696 185.99 207.934 186.228 207.934 186.592C207.934 186.942 207.696 187.18 207.332 187.18C206.982 187.18 206.744 186.942 206.744 186.592ZM207.892 196H206.772V189H207.892V196ZM211.266 192.542V196H210.146V189H211.112L211.252 190.386C211.798 189.392 212.722 188.79 213.87 188.79C215.676 188.79 216.922 190.344 216.922 192.542V196H215.802V192.542C215.802 190.918 214.906 189.84 213.534 189.84C212.19 189.84 211.266 190.932 211.266 192.542ZM224.688 195.818V194.502C224.114 195.496 223.106 196.098 221.93 196.098C220.012 196.098 218.598 194.516 218.598 192.444C218.598 190.344 220.012 188.79 221.93 188.79C223.12 188.79 224.128 189.378 224.702 190.386L224.828 189H225.808V195.818C225.808 197.974 224.366 199.528 222.308 199.528C220.586 199.528 219.256 198.464 218.836 196.84H219.942C220.32 197.862 221.202 198.492 222.308 198.492C223.708 198.492 224.688 197.4 224.688 195.818ZM219.718 192.444C219.718 193.97 220.782 195.062 222.224 195.062C223.694 195.062 224.688 193.984 224.688 192.444C224.688 190.89 223.666 189.798 222.224 189.798C220.768 189.798 219.718 190.918 219.718 192.444ZM238.194 192.822H232.132C232.258 194.264 233.252 195.314 234.582 195.314C235.562 195.314 236.36 194.81 236.822 194.012H237.97C237.396 195.37 236.15 196.21 234.582 196.21C232.524 196.21 230.998 194.628 230.998 192.514C230.998 190.372 232.496 188.79 234.582 188.79C236.71 188.79 238.208 190.302 238.208 192.514C238.208 192.612 238.194 192.71 238.194 192.822ZM232.132 192.178H237.074C236.948 190.708 235.968 189.714 234.582 189.714C233.252 189.714 232.258 190.736 232.132 192.178ZM241.003 186.2V196H239.883V186.2H241.003ZM243.234 186.592C243.234 186.228 243.472 185.99 243.822 185.99C244.186 185.99 244.424 186.228 244.424 186.592C244.424 186.942 244.186 187.18 243.822 187.18C243.472 187.18 243.234 186.942 243.234 186.592ZM244.382 196H243.262V189H244.382V196ZM248.723 190.05V192.724C248.723 194.432 249.381 195.146 250.851 195.146V196.21C248.555 196.21 247.603 195.034 247.603 192.724V190.05H246.133V189.574L248.261 187.432H248.723V189H250.851V190.05H248.723Z" fill="#F6FFD2"/>
<g filter="url(#filter2_d_101_47)">
<path d="M311.046 11C306.602 11 303 14.6021 303 19.0455V47.566C303 47.9598 303.521 48.0998 303.718 47.759L318.008 23.0766C321.114 17.7129 317.243 11 311.046 11Z" fill="white"/>
</g>
<defs>
<filter id="filter0_d_101_47" x="0" y="15" width="320" height="247" filterUnits="userSpaceOnUse" color-interpolation-filters="sRGB">
<feFlood flood-opacity="0" result="BackgroundImageFix"/>
<feColorMatrix in="SourceAlpha" type="matrix" values="0 0 0 0 0 0 0 0 0 0 0 0 0 0 0 0 0 0 127 0" result="hardAlpha"/>
<feOffset dy="4"/>
<feGaussianBlur stdDeviation="7.5"/>
<feComposite in2="hardAlpha" operator="out"/>
<feColorMatrix type="matrix" values="0 0 0 0 1 0 0 0 0 1 0 0 0 0 1 0 0 0 0.35 0"/>
<feBlend mode="normal" in2="BackgroundImageFix" result="effect1_dropShadow_101_47"/>
<feBlend mode="normal" in="SourceGraphic" in2="effect1_dropShadow_101_47" result="shape"/>
</filter>
<filter id="filter1_d_101_47" x="145" y="88" width="25" height="53" filterUnits="userSpaceOnUse" color-interpolation-filters="sRGB">
<feFlood flood-opacity="0" result="BackgroundImageFix"/>
<feColorMatrix in="SourceAlpha" type="matrix" values="0 0 0 0 0 0 0 0 0 0 0 0 0 0 0 0 0 0 127 0" result="hardAlpha"/>
<feOffset dy="10"/>
<feGaussianBlur stdDeviation="3"/>
<feComposite in2="hardAlpha" operator="out"/>
<feColorMatrix type="matrix" values="0 0 0 0 1 0 0 0 0 1 0 0 0 0 1 0 0 0 0.15 0"/>
<feBlend mode="normal" in2="BackgroundImageFix" result="effect1_dropShadow_101_47"/>
<feBlend mode="normal" in="SourceGraphic" in2="effect1_dropShadow_101_47" result="shape"/>
</filter>
<filter id="filter2_d_101_47" x="288" y="0" width="46.103" height="66.9518" filterUnits="userSpaceOnUse" color-interpolation-filters="sRGB">
<feFlood flood-opacity="0" result="BackgroundImageFix"/>
<feColorMatrix in="SourceAlpha" type="matrix" values="0 0 0 0 0 0 0 0 0 0 0 0 0 0 0 0 0 0 127 0" result="hardAlpha"/>
<feOffset dy="4"/>
<feGaussianBlur stdDeviation="7.5"/>
<feComposite in2="hardAlpha" operator="out"/>
<feColorMatrix type="matrix" values="0 0 0 0 1 0 0 0 0 1 0 0 0 0 1 0 0 0 0.35 0"/>
<feBlend mode="normal" in2="BackgroundImageFix" result="effect1_dropShadow_101_47"/>
<feBlend mode="normal" in="SourceGraphic" in2="effect1_dropShadow_101_47" result="shape"/>
</filter>
</defs>
</svg>
